# xmcd
#
# Track frame offsets: 
#        150
#        18128
#        39412
#        55784
#        73254
#        85435
#        98769
#        116875
#        134264
#        150103
#
# Disc length: 2245 seconds
#
# Revision: 0
# Processed by: cddbd v1.5.2PL0 Copyright (c) Steve Scherf et al.
# Submitted via: ExactAudioCopy v0.99pb5
#
DISCID=7908c30a
DTITLE=Nicole - Funny Lady
DYEAR=1900
DGENRE=
TTITLE0=บุษบา
TTITLE1=ทำไมเป็นคนแบบนี้
TTITLE2=ดอกไม้ที่ทำตกไว้
TTITLE3=ใจร้าย
TTITLE4=เปรี้ยวใจ
TTITLE5=ไม่ใช่ ไม่ใช่
TTITLE6=ใต้แสงตะวัน
TTITLE7=อยุ่ที่ใจ
TTITLE8=วันหนึ่ง... ฉันทำเพื่อเธอ
TTITLE9=วินาทีเดียว
EXTD=
EXTT0=
EXTT1=
EXTT2=
EXTT3=
EXTT4=
EXTT5=
EXTT6=
EXTT7=
EXTT8=
EXTT9=
PLAYORDER=
